HIERARCHY
ROOT Hips
{
  OFFSET 263.056 91.6644 -274.608
  CHANNELS 6 Xposition Yposition Zposition Zrotation Xrotation Yrotation
  JOINT LeftUpLeg
  {
    OFFSET 8.64259 1.95398 -2.38835
    CHANNELS 3 Zrotation Xrotation Yrotation
    JOINT LeftLeg
    {
      OFFSET 43.7702 0 0
      CHANNELS 3 Zrotation Xrotation Yrotation
      JOINT LeftFoot
      {
        OFFSET 40.6238 0 0
        CHANNELS 3 Zrotation Xrotation Yrotation
        JOINT LeftToeBase
        {
          OFFSET 12.7242 0 0
          CHANNELS 3 Zrotation Xrotation Yrotation
          End Site
          {
            OFFSET 0 0 0
          }
        }
      }
    }
  }
  JOINT RightUpLeg
  {
    OFFSET -8.2249 1.95398 -2.59336
    CHANNELS 3 Zrotation Xrotation Yrotation
    JOINT RightLeg
    {
      OFFSET 43.5653 0 0
      CHANNELS 3 Zrotation Xrotation Yrotation
      JOINT RightFoot
      {
        OFFSET 40.6238 0 0
        CHANNELS 3 Zrotation Xrotation Yrotation
        JOINT RightToeBase
        {
          OFFSET 12.7242 0 0
          CHANNELS 3 Zrotation Xrotation Yrotation
          End Site
          {
            OFFSET 0 0 0
          }
        }
      }
    }
  }
  JOINT Spine
  {
    OFFSET 0.165834 0.87714 6.61349
    CHANNELS 3 Zrotation Xrotation Yrotation
    JOINT Spine1
    {
      OFFSET 7.38963 1.71661e-005 0
      CHANNELS 3 Zrotation Xrotation Yrotation
      JOINT Spine2
      {
        OFFSET 11.9445 1.14441e-005 0
        CHANNELS 3 Zrotation Xrotation Yrotation
        JOINT Spine3
        {
          OFFSET 14.7254 4.19617e-005 0
          CHANNELS 3 Zrotation Xrotation Yrotation
          JOINT Spine4
          {
            OFFSET 10.9679 0 0
            CHANNELS 3 Zrotation Xrotation Yrotation
            JOINT RightShoulder
            {
              OFFSET 2.46616 -1.6653 3.69651
              CHANNELS 3 Zrotation Xrotation Yrotation
              JOINT RightArm
              {
                OFFSET 13.0012 0 0
                CHANNELS 3 Zrotation Xrotation Yrotation
                JOINT RightForeArm
                {
                  OFFSET 28.7848 1.52588e-005 0
                  CHANNELS 3 Zrotation Xrotation Yrotation
                  JOINT RightHand
                  {
                    OFFSET 26.5688 1.52588e-005 0
                    CHANNELS 3 Zrotation Xrotation Yrotation
                    End Site
                    {
                      OFFSET 0 0 0
                    }
                  }
                }
              }
            }
            JOINT LeftShoulder
            {
              OFFSET 2.38034 -1.29275 -3.7523
              CHANNELS 3 Zrotation Xrotation Yrotation
              JOINT LeftArm
              {
                OFFSET 16.3182 6.10352e-005 0
                CHANNELS 3 Zrotation Xrotation Yrotation
                JOINT LeftForeArm
                {
                  OFFSET 27.0901 0 0
                  CHANNELS 3 Zrotation Xrotation Yrotation
                  JOINT LeftHand
                  {
                    OFFSET 24.5451 1.52588e-005 0
                    CHANNELS 3 Zrotation Xrotation Yrotation
                    End Site
                    {
                      OFFSET 0 0 0
                    }
                  }
                }
              }
            }
            JOINT Neck
            {
              OFFSET 5.0226 -0.0266342 0
              CHANNELS 3 Zrotation Xrotation Yrotation
              JOINT Head
              {
                OFFSET 6.69364 2.86102e-005 0
                CHANNELS 3 Zrotation Xrotation Yrotation
                End Site
                {
                  OFFSET 0 0 0
                }
              }
            }
          }
        }
      }
    }
  }
}
MOTION
Frames:	12
Frame Time:	0.0416667
26.2353 80.7623 -275.448 67.3778 -19.6012 85.3905 166.839 50.8658 93.4246 -92.0002 23.9196 39.7364 149.991 30.5465 -61.8788 9.50587 -25.0793 5.82079 -150.47 23.44 139.657 31.7899 23.5378 -57.0962 4.41135 7.34265 13.381 79.5464 -19.2007 -53.7414 -7.4933 6.35526 -93.1447 13.9843 -16.384 -4.10151 2.41563 -16.5481 -3.35739 -20.7591 -14.3835 -8.92161 -0.746497 -14.3835 -8.92161 81.9013 -51.8593 -112.396 32.1755 -4.40654 44.5609 -33.6785 41.4809 -131.115 -2.68796 -0.63754 -62.3882 -99.6675 -40.4751 60.6805 -37.542 9.33636 20.9579 17.8722 -4.31124 -93.3293 34.6272 4.18826 8.37063 1.78462 5.20467 3.08385 16.4195 4.85539 1.40142 
25.6264 83.4485 -269.708 65.8293 -21.1229 84.7788 155.454 39.8859 110.437 -92.1666 43.2093 39.2084 132.401 38.8309 -32.1587 10.6954 -19.5887 -2.39748 -161.199 28.3693 130.313 4.15285 48.7058 -27.9704 24.1913 8.46732 10.3642 88.4041 -14.6958 -37.0178 -6.94239 6.2613 -93.2748 14.1447 -15.3559 -4.47059 2.56148 -15.5373 -3.77528 -20.5025 -13.296 -8.94248 -0.489829 -13.296 -8.94248 81.6576 -50.4443 -113.27 31.7639 -0.784401 40.9405 -27.4147 35.3458 -134.781 0.465086 -2.0587 -60.1814 -100.482 -41.8942 60.0196 -37.9026 8.58481 21.859 19.9008 -0.947122 -84.2772 35.87 4.56843 9.01269 12.7044 2.86667 3.75944 3.13015 1.98364 2.17838 
24.6029 85.1774 -265.985 64.116 -26.6726 83.7168 154.261 37.9708 113.827 -85.9802 39.638 29.2222 88.9681 23.815 1.722 37.3398 8.72486 -23.2768 -161.08 19.4911 127.512 9.36627 57.3075 -14.8318 30.4612 4.40703 5.01857 88.7751 -5.15105 -18.1951 -6.13608 6.23368 -93.1782 14.2122 -13.7116 -4.48322 2.60943 -13.8953 -3.86502 -20.323 -11.7273 -8.43757 -0.310373 -11.7273 -8.43757 82.2523 -48.3884 -113.143 34.5218 1.64007 40.5165 -17.5335 25.0982 -140.208 10.1593 -5.37664 -46.2973 -99.7857 -42.7474 61.4754 -39.4745 8.33888 26.493 17.0204 0.409574 -81.4763 36.0727 4.41885 8.49449 13.0197 2.23251 4.24823 2.54354 1.13774 0.721207 
23.0544 88.9498 -262.704 70.1574 -34.7726 87.5522 159.939 42.3482 104.662 -83.1425 38.6771 22.6959 69.2947 10.0601 16.079 47.142 19.1845 -6.45217 -159.506 9.91072 130.094 8.26044 62.6174 -9.06632 37.8082 3.03655 2.95097 83.4904 2.70416 -2.38923 -5.30409 6.90331 -92.6412 12.9069 -11.7955 -3.86103 1.28595 -11.9537 -3.33159 -21.5408 -10.088 -7.25323 -1.52818 -10.088 -7.25322 83.5713 -46.7389 -111.729 37.8285 0.209239 36.0765 -9.79736 15.1637 -137.191 46.7842 2.20056 -1.51758 -97.69 -42.0211 64.4668 -42.6521 9.36957 31.7923 15.2208 -0.424525 -82.24 36.7076 4.30869 7.97915 11.3945 0.667603 3.64921 3.6834 -0.256711 -0.651724 
21.8567 91.8404 -259.21 79.9716 -41.3894 92.9785 170.532 41.8427 94.0012 -70.735 43.866 15.7309 64.9512 5.2609 9.26126 42.8296 18.9486 17.587 -158.887 -1.65965 131.432 -0.449373 63.8634 0.43396 46.4566 1.81892 1.42239 58.5801 5.54377 18.0806 -4.60836 7.65309 -91.9252 11.4683 -10.0673 -2.81256 -0.165328 -10.1812 -2.36252 -22.9287 -8.75468 -5.72641 -2.91606 -8.75467 -5.72642 84.639 -45.3049 -110.572 34.0557 -17.428 13.3629 2.50454 13.3029 -118.314 81.5782 21.2665 17.8994 -95.9052 -40.3341 66.6836 -45.7665 9.42258 36.7907 15.4682 -1.17841 -84.2901 37.1693 4.22543 7.59854 10.5417 -0.557915 2.97112 4.23202 -1.33115 -1.5923 
21.0974 93.5537 -254.529 90.3202 -47.9026 98.0381 -179.61 35.6593 86.477 -48.6629 53.9953 3.84738 53.6976 -2.67563 7.2746 45.4199 22.1855 15.6473 -159.792 -15.8493 128.476 -5.79595 48.2354 7.09394 41.1573 1.88421 2.00309 45.361 2.02902 9.36099 -3.90441 8.25612 -91.2537 10.3134 -8.35217 -1.77247 -1.33126 -8.42202 -1.40065 -24.0371 -7.43173 -4.21277 -4.02448 -7.43173 -4.21278 85.2278 -43.6453 -110.224 35.1742 -19.3693 13.9611 -4.71056 8.90704 -108.822 89.7237 15.6016 9.76295 -95.8767 -39.9497 66.585 -47.3626 8.51362 39.7774 15.0741 -1.77113 -85.4678 35.915 4.07428 7.6309 10.8319 -0.891879 4.01723 3.66023 -1.96838 -2.71554 
20.6771 94.8982 -248.414 98.0819 -56.7891 101.82 -175.131 29.3266 83.6768 -29.776 45.7122 -4.4364 51.937 -5.61275 2.5154 43.2083 17.0049 5.81051 -169.348 -30.4177 117.761 -7.24919 29.4175 8.58913 31.0824 2.09675 2.96777 27.9601 -0.0707099 -1.48274 -2.96251 8.41233 -90.578 10.0404 -6.16667 -0.635883 -1.61591 -6.18865 -0.362817 -24.2539 -5.68959 -2.46562 -4.2412 -5.68959 -2.46562 85.4805 -43.788 -109.763 35.9475 -21.6762 16.0285 -11.6859 10.7075 -105.236 86.3063 10.3515 6.08608 -94.1707 -38.4125 68.8431 -49.6726 8.39993 41.9599 15.371 -2.15864 -86.201 36.8197 3.24303 4.99193 10.7332 -0.950527 2.74316 2.30574 -1.67488 -2.3246 
20.3712 94.9199 -241.627 105.272 -69.058 106.443 -174.752 23.6948 83.2258 -19.6781 28.7924 -3.67892 44.0522 -13.312 -5.00366 44.6876 19.0978 7.05212 173.576 -26.0464 97.5181 -31.8688 15.1997 6.56742 33.3218 2.89264 3.58997 22.5536 -0.470619 0.546699 -1.75082 8.29854 -90.0642 10.2831 -3.51751 0.174718 -1.38322 -3.5064 0.329541 -23.9545 -3.40723 -0.891754 -3.94187 -3.40723 -0.891753 85.9426 -44.0233 -108.933 36.0958 -22.9846 16.7872 -14.3655 14.8302 -102.941 84.5605 8.40974 4.60989 -93.7273 -38.4154 69.5876 -49.8419 7.42415 42.498 16.1628 -2.74453 -87.8347 34.4602 3.05162 5.04137 10.1767 -0.311634 2.13072 2.41938 -0.895207 -2.15949 
20.1886 94.2819 -234.393 119.534 -79.8816 118.424 -173.925 20.9943 82.1496 -19.9531 23.1857 -4.16544 48.5548 -7.97884 5.63668 27.4429 -0.071418 -11.3799 169.774 -10.0421 87.7677 -57.6885 9.13806 0.858047 38.0301 3.19147 3.59278 23.3793 -0.558675 2.03592 -0.682126 8.03123 -89.5756 10.8159 -1.16225 0.952159 -0.854877 -1.11922 1.00239 -23.393 -1.39467 0.558805 -3.38039 -1.39468 0.558794 85.2509 -45.319 -109.595 36.0355 -21.4155 19.7871 -11.2127 8.9245 -101.447 69.8445 5.01778 2.24234 -93.9754 -39.0103 69.3817 -48.0893 6.71949 41.68 15.9802 -3.01097 -89.0543 37.4968 3.14635 4.53904 8.11121 0.271845 0.93425 3.54814 -0.0248358 -1.57858 
20.1503 93.0712 -226.554 155.273 -85.7867 153.232 -172.563 21.5493 81.2301 -31.7006 10.5477 -3.95654 63.9497 8.01899 10.2224 21.4681 -4.95943 -14.7043 172.408 2.08419 83.668 -71.8611 11.5179 -2.92421 41.1725 1.88212 2.20309 27.2829 -0.589816 5.57405 -0.0767866 7.71873 -89.38 11.434 0.136806 1.221 -0.237494 0.190417 1.21379 -22.7683 -0.236453 1.20568 -2.75564 -0.236449 1.20567 84.8933 -45.9486 -109.945 36.3315 -18.8293 23.0985 -11.5388 2.53269 -94.9383 45.3479 1.93486 0.237986 -95.0896 -40.8498 68.1989 -45.3241 7.18743 38.9644 13.9598 -3.46269 -89.5627 34.7206 3.33058 5.73103 4.85762 1.1652 0.654489 6.19242 0.93721 -1.00826 
19.9112 92.0069 -218.425 -164.747 -86.7241 -167.319 -171.579 19.992 80.6885 -38.1263 9.83181 -4.13602 65.5863 13.5039 16.939 35.9133 7.68643 -12.1225 175.343 16.0192 86.8002 -79.861 14.1453 -4.2585 44.218 0.348703 0.795635 33.7072 0.266249 4.62488 0.0697277 7.73659 -89.1088 11.3942 0.554722 1.72292 -0.27767 0.629999 1.69684 -22.8039 0.0113417 1.80996 -2.7912 0.0113478 1.80996 83.1504 -49.8334 -111.263 33.7362 -16.1706 23.7197 -20.4435 1.65081 -82.893 -31.1757 -2.08 3.76152 -96.3608 -42.2814 66.6793 -39.7347 8.66579 32.3088 13.4906 -3.02038 -88.4374 39.6762 4.24949 6.95786 6.99073 1.57363 -1.30955 4.90877 1.77016 -0.511393 
19.8564 91.8423 -209.883 -165.476 -86.5401 -168.262 -171.743 14.8086 81.1641 -40.1963 9.72107 -3.86542 67.5675 16.0467 17.5173 42.7288 13.8964 -10.9777 177.586 24.8594 86.6599 -80.008 17.5589 -4.46225 49.172 -1.43764 -0.701076 36.2839 0.465933 6.42694 -0.0650272 7.85771 -88.9113 11.1497 0.376323 2.13014 -0.522842 0.46969 2.11152 -23.0443 -0.28112 2.14478 -3.03166 -0.281122 2.14477 80.9294 -52.6056 -113.537 32.6397 -14.6514 25.2753 -15.0883 -1.97115 -76.1741 -28.3254 -1.96405 3.43364 -97.5895 -41.9141 64.583 -34.5984 8.67631 25.3775 14.6216 -2.13878 -88.3043 40.9786 5.50519 9.63379 7.4371 2.28549 -2.89536 5.38156 2.81571 -0.00629439 
